<svg id="SvgjsSvg1016" width="288" height="288" xmlns="http://www.w3.org/2000/svg" version="1.1" xmlns:xlink="http://www.w3.org/1999/xlink" xmlns:svgjs="http://svgjs.com/svgjs"><defs id="SvgjsDefs1017"></defs><g id="SvgjsG1018"><svg xmlns="http://www.w3.org/2000/svg" width="288" height="288" fill="#000000" viewBox="0 0 32 32"><path fill="#000000" d="M15.9987 24.0333C15.5464 24.0333 15.1797 24.4 15.1797 24.8523V27.1808C15.1797 27.6331 15.5464 27.9998 15.9987 27.9998 16.4511 27.9998 16.8177 27.6331 16.8177 27.1808V24.8523C16.8177 24.3999 16.451 24.0333 15.9987 24.0333zM15.9987 7.96703C16.4511 7.96703 16.8177 7.60035 16.8177 7.14805V4.81931C16.8177 4.36702 16.4511 4.00034 15.9987 4.00034 15.5464 4.00034 15.1797 4.36702 15.1797 4.81931V7.14805C15.1797 7.60035 15.5464 7.96703 15.9987 7.96703zM9.16165 21.68L7.51452 23.3262C7.19457 23.646 7.19446 24.1645 7.51419 24.4844 7.67416 24.6444 7.88382 24.7244 8.09348 24.7244 8.30303 24.7244 8.51247 24.6445 8.67244 24.4847L10.3196 22.8385C10.6395 22.5187 10.6396 22.0001 10.3199 21.6803 9.99995 21.3604 9.48148 21.3604 9.16165 21.68zM22.2587 10.5592C22.4682 10.5592 22.6778 10.4792 22.8377 10.3194L24.4846 8.67311C24.8045 8.35327 24.8046 7.8348 24.4849 7.51486 24.165 7.19491 23.6466 7.1948 23.3266 7.51475L21.6797 9.161C21.3599 9.48073 21.3598 9.99931 21.6795 10.3191 21.8394 10.4792 22.049 10.5592 22.2587 10.5592zM7.96648 16.0002C7.96648 15.5479 7.59979 15.1812 7.1475 15.1812H4.81898C4.36668 15.1812 4 15.5479 4 16.0002 4 16.4525 4.36668 16.8192 4.81898 16.8192H7.1475C7.59979 16.8192 7.96648 16.4525 7.96648 16.0002zM27.181 15.1812H24.8514C24.399 15.1812 24.0324 15.5479 24.0324 16.0002 24.0324 16.4525 24.399 16.8192 24.8514 16.8192H27.181C27.6334 16.8192 28 16.4525 28 16.0002 28 15.548 27.6334 15.1812 27.181 15.1812zM9.1614 10.3194C9.32127 10.4792 9.53092 10.5591 9.74047 10.5591 9.95002 10.5591 10.1597 10.4792 10.3195 10.3194 10.6394 9.99951 10.6394 9.48094 10.3195 9.1611L8.67329 7.51484C8.35345 7.195 7.83488 7.195 7.51515 7.51484 7.19531 7.83468 7.19531 8.35326 7.51515 8.67299L9.1614 10.3194zM22.8387 21.6802C22.5188 21.3604 22.0002 21.3603 21.6804 21.6801 21.3605 22 21.3605 22.5186 21.6803 22.8383L23.3263 24.4845C23.4863 24.6445 23.6959 24.7244 23.9055 24.7244 24.1151 24.7244 24.3247 24.6445 24.4846 24.4847 24.8045 24.1648 24.8045 23.6462 24.4847 23.3265L22.8387 21.6802zM15.9996 9.62561C12.4849 9.62561 9.62543 12.4853 9.62543 16.0002 9.62543 19.515 12.4849 22.3746 15.9996 22.3746 19.5147 22.3746 22.3743 19.515 22.3743 16.0002 22.3743 12.4853 19.5145 9.62561 15.9996 9.62561zM15.9996 20.7366C13.388 20.7366 11.2634 18.6119 11.2634 16.0002 11.2634 13.3884 13.388 11.2636 15.9996 11.2636 18.6115 11.2636 20.7364 13.3884 20.7364 16.0002 20.7364 18.6119 18.6115 20.7366 15.9996 20.7366z" class="color000 svgShape"></path></svg></g></svg>